<?xml version="1.0" standalone="no"?>
<!DOCTYPE svg PUBLIC "-//W3C//DTD SVG 20010904//EN"
 "http://www.w3.org/TR/2001/REC-SVG-20010904/DTD/svg10.dtd">
<svg version="1.0" xmlns="http://www.w3.org/2000/svg"
 width="640.000000pt" height="1280.000000pt" viewBox="0 0 640.000000 1280.000000"
 preserveAspectRatio="xMidYMid meet">
<metadata>
Created by potrace 1.15, written by Peter Selinger 2001-2017
</metadata>
<g transform="translate(0.000000,1280.000000) scale(0.100000,-0.100000)"
fill="#000000" stroke="none">
<path d="M2767 12722 l-77 -77 0 -76 0 -77 -42 5 c-24 2 -101 8 -173 12 -149
10 -136 14 -240 -82 -56 -52 -68 -68 -58 -78 10 -10 8 -18 -10 -37 -21 -23
-21 -24 -4 -37 18 -13 18 -14 -2 -25 -12 -6 -35 -35 -52 -65 l-31 -55 -62 0
-63 0 -81 -132 c-75 -124 -80 -137 -84 -197 -2 -37 1 -65 7 -67 6 -2 59 60
118 136 l108 140 48 0 49 0 -89 -156 c-76 -134 -96 -178 -141 -320 -28 -90
-49 -167 -45 -170 4 -4 19 -2 33 5 23 10 26 10 20 -4 -3 -9 -16 -50 -28 -91
-12 -41 -24 -71 -28 -67 -20 25 -60 154 -54 177 4 19 -10 67 -51 173 -31 82
-60 151 -63 155 -4 4 -36 10 -72 13 l-65 7 -62 -47 c-55 -41 -63 -51 -63 -80
0 -48 89 -293 115 -319 13 -11 96 -191 185 -399 l163 -378 -18 -40 c-10 -21
-21 -56 -24 -77 -6 -34 -12 -40 -76 -73 -77 -40 -117 -55 -113 -42 2 4 -12 34
-30 66 l-34 57 -51 -27 c-39 -21 -58 -40 -76 -74 l-24 -45 87 -165 c48 -90 91
-168 96 -172 4 -5 33 -1 63 9 43 13 59 24 67 45 13 30 46 44 54 23 3 -8 1 -38
-4 -66 -5 -29 -12 -87 -16 -128 l-7 -75 -86 -92 c-146 -153 -173 -229 -159
-438 13 -195 10 -266 -17 -470 -31 -236 -45 -303 -86 -410 -45 -120 -52 -126
-137 -133 -40 -2 -76 -10 -81 -16 -18 -22 -111 -279 -104 -286 4 -3 43 -17 86
-30 75 -23 78 -25 72 -49 -45 -174 -66 -376 -73 -711 l-7 -294 -33 -7 c-18 -4
-34 -8 -36 -10 -2 -2 3 -158 11 -345 l13 -341 -66 -119 c-37 -66 -78 -146 -92
-179 -44 -107 -26 -189 96 -434 l27 -54 115 -29 115 -28 45 18 c25 11 66 25
92 32 26 7 55 21 64 31 26 29 44 185 54 474 11 336 37 487 152 893 10 34 10
45 0 51 -9 5 2 59 42 212 29 112 57 219 61 237 16 74 15 11 -5 -254 -12 -154
-25 -353 -30 -444 -6 -91 -17 -264 -25 -385 -34 -495 -96 -1417 -102 -1512
l-6 -101 49 -69 c27 -37 82 -103 122 -145 l74 -77 23 -140 c47 -282 107 -558
142 -650 17 -44 21 -66 13 -71 -14 -9 -30 -116 -30 -210 0 -95 13 -174 51
-321 l31 -116 69 -22 c53 -17 70 -27 74 -44 32 -143 65 -481 65 -657 0 -279
-54 -462 -187 -637 -115 -152 -321 -295 -688 -479 -137 -69 -251 -129 -253
-133 -2 -5 85 -44 193 -87 l196 -78 472 43 c260 24 549 51 642 60 l170 16 -3
275 c-7 564 52 1038 194 1570 l36 135 70 54 c97 74 111 99 103 181 -3 36 -16
109 -29 162 -19 79 -33 112 -75 177 -29 44 -56 81 -61 83 -4 2 -28 44 -53 93
-25 50 -81 149 -125 220 -44 72 -79 132 -77 134 2 1 52 -3 112 -10 147 -17
504 -15 682 5 153 17 160 15 161 -28 0 -11 16 -91 35 -178 32 -143 36 -176 39
-336 4 -194 19 -279 73 -389 25 -52 33 -60 76 -74 26 -9 52 -20 57 -25 12 -13
89 -221 144 -394 139 -432 201 -808 214 -1312 l7 -247 -188 -267 -189 -266 67
-116 c37 -65 70 -120 74 -124 7 -8 434 26 539 43 67 10 139 32 186 56 76 39
174 158 259 315 l37 68 -36 146 c-40 168 -77 376 -96 549 -18 162 -16 904 3
1154 l14 183 -27 122 c-15 66 -27 128 -27 137 -1 9 18 26 44 40 l45 24 0 65
c0 126 -55 291 -154 463 -21 38 -45 71 -53 74 -8 3 -34 44 -58 92 -24 47 -86
164 -138 259 l-96 173 27 10 c15 6 39 13 55 16 15 3 27 9 27 13 0 5 -13 38
-30 75 -202 450 -397 1737 -515 3400 -8 116 -15 216 -15 222 0 7 19 -2 43 -20
23 -17 63 -43 87 -56 l45 -23 134 -335 c136 -341 139 -352 94 -353 -6 0 -15
-4 -18 -10 -3 -5 35 -156 85 -334 l91 -325 -64 -128 c-76 -151 -119 -273 -141
-402 -18 -107 -21 -273 -6 -302 11 -20 77 -52 95 -46 6 3 33 59 60 126 32 80
52 117 57 108 14 -26 30 -160 24 -200 -9 -51 -33 -98 -127 -241 -44 -66 -79
-123 -79 -128 0 -5 7 -22 15 -39 19 -36 56 -52 101 -43 27 5 47 24 120 120 48
63 88 113 90 112 1 -2 -9 -42 -23 -90 -14 -47 -23 -93 -20 -102 11 -28 67 -18
151 27 l79 42 60 105 c131 228 155 331 137 582 -6 84 -13 158 -15 164 -2 6 8
63 21 127 13 64 35 195 49 290 27 183 76 649 69 656 -2 3 -34 8 -71 13 -37 4
-69 12 -73 18 -3 5 -21 170 -40 365 -27 289 -31 358 -21 364 20 13 41 117 41
201 0 75 -14 158 -44 260 l-16 55 -78 29 c-42 16 -83 36 -90 45 -21 26 -130
372 -147 465 -17 98 -19 197 -5 266 7 36 2 75 -26 205 -19 88 -43 188 -55 223
-30 91 -98 176 -190 237 -64 43 -78 57 -92 96 -21 57 -56 103 -121 155 -98 79
-211 123 -541 209 -99 26 -187 49 -195 51 -8 3 -54 -15 -103 -39 l-87 -43 -25
42 c-14 24 -25 49 -25 57 0 24 -37 50 -63 43 -24 -6 -24 -4 -49 145 -14 82
-21 152 -16 155 4 3 8 -4 8 -15 0 -24 107 -118 120 -105 5 5 10 25 12 45 l3
37 68 -39 c38 -22 72 -37 77 -34 4 2 5 17 2 32 l-5 26 32 -22 c17 -13 46 -43
64 -67 32 -43 57 -57 57 -30 0 7 -7 80 -16 161 -8 81 -14 158 -12 171 3 19 19
8 128 -92 69 -62 128 -114 133 -114 13 0 7 30 -38 182 -25 83 -44 156 -42 162
2 6 18 -17 36 -51 17 -35 36 -63 41 -63 6 0 10 25 10 55 0 50 2 55 23 55 35 0
42 -10 72 -97 15 -45 31 -87 35 -94 17 -27 25 4 19 73 -3 40 -5 74 -4 76 1 1
46 -49 100 -113 54 -63 104 -115 112 -115 7 0 13 1 13 3 0 1 -27 82 -59 180
-33 97 -57 177 -54 177 2 0 30 -23 61 -50 31 -28 60 -46 64 -42 8 8 -121 323
-170 417 -8 17 -49 73 -90 125 -41 52 -79 101 -85 108 -6 8 -5 12 5 12 8 0 82
-58 165 -130 140 -121 173 -144 173 -121 0 5 -49 95 -110 201 -81 141 -122
225 -155 319 -44 124 -53 161 -37 161 20 1 354 79 360 84 13 14 -18 24 -128
44 -100 18 -147 34 -352 122 -152 65 -245 99 -260 96 -13 -3 -66 -7 -118 -10
l-95 -6 100 46 c93 44 106 47 185 48 63 1 108 -5 172 -24 48 -13 90 -22 93
-18 4 3 -17 38 -46 77 -59 79 -55 77 -204 86 -55 3 -131 13 -170 22 l-70 15
-120 -41 -120 -42 68 68 c37 38 67 73 67 79 0 7 -46 14 -127 18 -71 4 -152 14
-181 22 l-53 15 -91 -71 c-107 -83 -102 -86 -112 65 -4 55 -10 103 -14 107 -4
4 -42 -27 -85 -70z m-662 -1590 c1 -154 12 -201 91 -395 24 -59 44 -111 44
-115 0 -4 -27 -24 -59 -44 -57 -36 -61 -37 -80 -20 -12 10 -56 109 -106 240
l-85 223 97 124 c53 69 97 125 97 125 1 0 1 -62 1 -138z m-211 -17 c-6 -23 -8
-25 -16 -11 -6 11 -6 22 3 32 16 20 21 12 13 -21z m2325 -2958 c-1 -31 -1 -31
-9 -7 -11 36 -11 52 0 45 6 -3 10 -21 9 -38z"/>
</g>
</svg>
