<?xml version="1.0" encoding="iso-8859-1"?>
<!-- Generator: Adobe Illustrator 18.0.0, SVG Export Plug-In . SVG Version: 6.00 Build 0)  -->
<!DOCTYPE svg PUBLIC "-//W3C//DTD SVG 1.1//EN" "http://www.w3.org/Graphics/SVG/1.1/DTD/svg11.dtd">
<svg version="1.1" id="Capa_1" xmlns="http://www.w3.org/2000/svg" xmlns:xlink="http://www.w3.org/1999/xlink" x="0px" y="0px"
	 viewBox="0 0 307.052 307.052" style="enable-background:new 0 0 307.052 307.052;" xml:space="preserve">
<g>
	<path d="M305.532,236.017l-13.598-20.752c-2.81-4.288-8.563-5.486-12.851-2.677l-75.814,49.677
		c-4.288,2.81-5.486,8.563-2.677,12.851l13.598,20.752c2.81,4.288,8.563,5.486,12.851,2.677l75.814-49.676
		C307.143,246.059,308.342,240.305,305.532,236.017z"/>
	<path d="M216.152,235.576l24.822-16.265c10.019-6.564,16.882-16.638,19.324-28.364c2.361-11.335,0.306-22.897-5.762-32.706
		c-0.627-1.04-35.478-54.198-37.266-56.928c-4.589-7.004-13.986-8.961-20.991-4.372c-4.559,2.987-6.963,8.012-6.831,13.088
		l-2.702-4.123c-4.589-7.004-13.987-8.961-20.991-4.372c-4.559,2.987-6.962,8.012-6.831,13.087l-1.87-2.854
		c-4.589-7.004-13.986-8.96-20.991-4.372c-4.559,2.987-6.963,8.013-6.831,13.089L104.093,82.12
		c-4.589-7.003-13.986-8.961-20.991-4.372c-7.004,4.589-8.961,13.987-4.372,20.991l62.508,95.399l-26.165-8.915
		c-7.93-2.702-16.541,1.536-19.241,9.462c-2.7,7.926,1.536,16.54,9.462,19.241l73.579,25.07c4.891,2.034,10.144,3.102,15.445,3.102
		C201.826,242.099,209.416,239.989,216.152,235.576z"/>
	<path d="M46.791,92.779c-0.019,0-0.038,0-0.058,0c-5.522,0.031-9.975,4.534-9.943,10.057l0.084,14.777
		c-15.683-27.57-7.406-63.059,19.484-80.679c13.551-8.879,29.746-11.949,45.607-8.646c15.859,3.303,29.483,12.585,38.362,26.135
		c3.027,4.618,9.225,5.914,13.845,2.884c4.62-3.026,5.911-9.226,2.884-13.845c-11.807-18.019-29.923-30.361-51.013-34.754
		c-21.088-4.393-42.627-0.31-60.647,11.497C8.841,44.158-1.84,92.945,20.94,129.926l-10.996,0.062
		C4.421,130.02-0.031,134.523,0,140.045c0.031,5.504,4.502,9.943,9.999,9.943c0.019,0,0.038,0,0.058,0l37-0.21
		c5.522-0.031,9.975-4.534,9.943-10.057l-0.21-37C56.759,97.218,52.288,92.779,46.791,92.779z"/>
</g>
<g>
</g>
<g>
</g>
<g>
</g>
<g>
</g>
<g>
</g>
<g>
</g>
<g>
</g>
<g>
</g>
<g>
</g>
<g>
</g>
<g>
</g>
<g>
</g>
<g>
</g>
<g>
</g>
<g>
</g>
</svg>
