<?xml version="1.0" encoding="iso-8859-1"?>
<!-- Generator: Adobe Illustrator 19.0.0, SVG Export Plug-In . SVG Version: 6.00 Build 0)  -->
<svg version="1.1" id="Layer_1" xmlns="http://www.w3.org/2000/svg" xmlns:xlink="http://www.w3.org/1999/xlink" x="0px" y="0px"
	 viewBox="0 0 509.17 509.17" style="enable-background:new 0 0 509.17 509.17;" xml:space="preserve">
<g>
	<g>
		<g>
			<path d="M506.674,50.769L494.625,38.72c-0.009-0.009-0.009-0.017-0.017-0.026l-24.132-24.132
				c-0.008-0.009-0.017-0.009-0.026-0.017L458.401,2.496c-3.337-3.328-8.738-3.328-12.066,0c-3.336,3.336-3.336,8.738,0,12.066
				l6.033,6.042l-30.165,30.165l-18.108-18.108c-3.328-3.328-8.73-3.328-12.066,0l-24.141,24.141c-3.328,3.337-3.328,8.738,0,12.066
				l0.009,0.009l-30.174,30.165l-85.871,85.862h144.819l13.457-13.457l30.165-30.174v0.009c1.673,1.664,3.857,2.5,6.042,2.5
				c2.176,0,4.361-0.836,6.033-2.5l24.141-24.141c3.328-3.337,3.328-8.738,0-12.066l-18.108-18.108l30.165-30.165l6.042,6.033
				c1.664,1.673,3.849,2.5,6.033,2.5c2.185,0,4.361-0.828,6.033-2.5C510.002,59.507,510.002,54.106,506.674,50.769z
				 M355.822,105.075l24.141-24.132l6.033,6.033l-24.141,24.132L355.822,105.075z M385.996,135.249l-12.075-12.075l24.141-24.132
				l12.066,12.066L385.996,135.249z M404.095,153.348l-6.033-6.033l24.132-24.141l6.033,6.033L404.095,153.348z M458.41,111.108
				l-12.075,12.066l-18.108-18.099l-24.132-24.132l-18.099-18.108l12.066-12.075l18.082,18.091c0.009,0,0.017,0.017,0.017,0.017
				l24.132,24.141c0.009,0,0.026,0.008,0.026,0.017L458.41,111.108z M446.335,74.901l-12.066-12.066l30.165-30.165L476.5,44.736
				L446.335,74.901z"/>
			<path d="M232.218,225.753c0,4.531,0.631,8.96,1.766,13.227l-22.98,22.98l-25.694,25.685c-7.552,7.569-8.747,19.021-3.772,27.921
				l-42.24,42.24c-14.72-12.049-33.51-19.302-53.965-19.302C38.281,338.504,0,376.793,0,423.837
				c0,47.053,38.281,85.333,85.333,85.333c47.044,0,85.333-38.281,85.333-85.333c0-20.454-7.253-39.245-19.302-53.965l42.232-42.232
				c3.541,1.963,7.432,3.046,11.375,3.046c5.99,0,11.998-2.27,16.555-6.835l25.685-25.685l22.98-22.98
				c4.267,1.135,8.695,1.766,13.227,1.766c13.67,0,26.53-5.325,36.207-14.993l59.981-59.989H238.063
				C234.249,209.224,232.218,217.33,232.218,225.753z M110.933,406.77c-4.719,0-8.533-3.814-8.533-8.533
				c0-4.028-7.014-8.533-17.067-8.533c-10.061,0-17.067,4.506-17.067,8.533c0,4.036,7.006,8.533,17.067,8.533
				c4.71,0,8.533,3.823,8.533,8.533c0,4.719-3.823,8.533-8.533,8.533c-19.465,0-34.133-11.008-34.133-25.6
				c0-14.592,14.669-25.6,34.133-25.6c19.456,0,34.133,11.008,34.133,25.6C119.467,402.956,115.644,406.77,110.933,406.77z
				 M209.459,311.777c-2.466,2.483-6.494,2.483-8.96,0l-3.106-3.106c-2.475-2.466-2.475-6.494-0.009-8.96l19.652-19.652
				l12.075,12.075L209.459,311.777z M241.997,255.773c1.579,2.167,3.285,4.25,5.214,6.187c1.937,1.929,4.019,3.635,6.187,5.214
				c0.128,0.094,0.239,0.213,0.367,0.307l-12.587,12.587l-12.075-12.075l12.587-12.587
				C241.783,255.534,241.903,255.645,241.997,255.773z"/>
		</g>
	</g>
</g>
<g>
</g>
<g>
</g>
<g>
</g>
<g>
</g>
<g>
</g>
<g>
</g>
<g>
</g>
<g>
</g>
<g>
</g>
<g>
</g>
<g>
</g>
<g>
</g>
<g>
</g>
<g>
</g>
<g>
</g>
</svg>
