<?xml version="1.0" encoding="iso-8859-1"?>
<!-- Generator: Adobe Illustrator 18.0.0, SVG Export Plug-In . SVG Version: 6.00 Build 0)  -->
<!DOCTYPE svg PUBLIC "-//W3C//DTD SVG 1.1//EN" "http://www.w3.org/Graphics/SVG/1.1/DTD/svg11.dtd">
<svg version="1.1" id="Capa_1" xmlns="http://www.w3.org/2000/svg" xmlns:xlink="http://www.w3.org/1999/xlink" x="0px" y="0px"
	 viewBox="0 0 297 297" style="enable-background:new 0 0 297 297;" xml:space="preserve">
<path d="M148.5,0C66.617,0,0,66.617,0,148.5S66.617,297,148.5,297c0.008,0,0.016,0,0.02,0c0.002,0,0.004,0,0.007,0
	C230.397,296.984,297,230.374,297,148.5C297,66.617,230.383,0,148.5,0z M148.501,51.766c15.281,0,27.713,12.432,27.713,27.713
	c0,15.281-12.432,27.713-27.713,27.713c-15.281,0-27.713-12.432-27.713-27.713C120.788,64.197,133.22,51.766,148.501,51.766z
	 M148.5,276.084c-32.292,0-58.563-26.271-58.563-58.563c0-32.293,26.271-58.564,58.563-58.564c43.824,0,79.479-35.654,79.479-79.479
	c0-13.588-3.434-26.386-9.469-37.583c34.654,22.834,57.575,62.09,57.575,106.604C276.085,218.851,218.851,276.084,148.5,276.084z"/>
<g>
	<path d="M148.5,241c-14.612,0-26.5-11.888-26.5-26.5s11.888-26.5,26.5-26.5c14.612,0,26.5,11.888,26.5,26.5S163.112,241,148.5,241z
		"/>
</g>
<g>
</g>
<g>
</g>
<g>
</g>
<g>
</g>
<g>
</g>
<g>
</g>
<g>
</g>
<g>
</g>
<g>
</g>
<g>
</g>
<g>
</g>
<g>
</g>
<g>
</g>
<g>
</g>
<g>
</g>
</svg>
